<svg width="1320" height="681" viewBox="0 0 1320 681" fill="none" xmlns="http://www.w3.org/2000/svg">
<line x1="19.5" y1="-6.55671e-08" x2="19.5" y2="680" stroke="#E5E7EB" stroke-opacity="0.41" stroke-width="3"/>
<line x1="59.5" y1="-6.55671e-08" x2="59.5" y2="680" stroke="#E5E7EB" stroke-opacity="0.41" stroke-width="3"/>
<line x1="99.5" y1="-6.55671e-08" x2="99.5" y2="680" stroke="#E5E7EB" stroke-opacity="0.41" stroke-width="3"/>
<line x1="139.5" y1="-6.55671e-08" x2="139.5" y2="680" stroke="#E5E7EB" stroke-opacity="0.41" stroke-width="3"/>
<line x1="179.5" y1="-6.55671e-08" x2="179.501" y2="680" stroke="#E5E7EB" stroke-opacity="0.41" stroke-width="3"/>
<line x1="219.5" y1="-6.55671e-08" x2="219.501" y2="680" stroke="#E5E7EB" stroke-opacity="0.41" stroke-width="3"/>
<line x1="259.5" y1="-6.55671e-08" x2="259.501" y2="680" stroke="#E5E7EB" stroke-opacity="0.41" stroke-width="3"/>
<line x1="299.5" y1="-6.55671e-08" x2="299.501" y2="680" stroke="#E5E7EB" stroke-opacity="0.41" stroke-width="3"/>
<line x1="339.5" y1="-6.55671e-08" x2="339.501" y2="680" stroke="#E5E7EB" stroke-opacity="0.41" stroke-width="3"/>
<line x1="379.5" y1="-6.55671e-08" x2="379.501" y2="680" stroke="#E5E7EB" stroke-opacity="0.41" stroke-width="3"/>
<line x1="419.5" y1="-6.55671e-08" x2="419.501" y2="680" stroke="#E5E7EB" stroke-opacity="0.41" stroke-width="3"/>
<line x1="459.5" y1="-6.55671e-08" x2="459.501" y2="680" stroke="#E5E7EB" stroke-opacity="0.41" stroke-width="3"/>
<line x1="499.5" y1="-6.55671e-08" x2="499.501" y2="680" stroke="#E5E7EB" stroke-opacity="0.41" stroke-width="3"/>
<line x1="539.5" y1="-6.55671e-08" x2="539.5" y2="680" stroke="#E5E7EB" stroke-opacity="0.41" stroke-width="3"/>
<line x1="579.5" y1="-6.55671e-08" x2="579.5" y2="680" stroke="#E5E7EB" stroke-opacity="0.41" stroke-width="3"/>
<line x1="619.5" y1="-6.55671e-08" x2="619.5" y2="680" stroke="#E5E7EB" stroke-opacity="0.41" stroke-width="3"/>
<line x1="659.5" y1="-6.55671e-08" x2="659.5" y2="680" stroke="#E5E7EB" stroke-opacity="0.41" stroke-width="3"/>
<line x1="699.5" y1="-6.55671e-08" x2="699.5" y2="680" stroke="#E5E7EB" stroke-opacity="0.41" stroke-width="3"/>
<line x1="739.5" y1="-6.55671e-08" x2="739.5" y2="680" stroke="#E5E7EB" stroke-opacity="0.41" stroke-width="3"/>
<line x1="779.5" y1="-6.55671e-08" x2="779.5" y2="680" stroke="#E5E7EB" stroke-opacity="0.41" stroke-width="3"/>
<line x1="819.5" y1="-6.55671e-08" x2="819.5" y2="680" stroke="#E5E7EB" stroke-opacity="0.41" stroke-width="3"/>
<line x1="859.5" y1="-6.55671e-08" x2="859.5" y2="680" stroke="#E5E7EB" stroke-opacity="0.41" stroke-width="3"/>
<line x1="899.5" y1="-6.55671e-08" x2="899.5" y2="680" stroke="#E5E7EB" stroke-opacity="0.41" stroke-width="3"/>
<line x1="939.5" y1="-6.55671e-08" x2="939.5" y2="680" stroke="#E5E7EB" stroke-opacity="0.41" stroke-width="3"/>
<line x1="979.5" y1="-6.55671e-08" x2="979.5" y2="680" stroke="#E5E7EB" stroke-opacity="0.41" stroke-width="3"/>
<line x1="1019.5" y1="-6.55671e-08" x2="1019.5" y2="680" stroke="#E5E7EB" stroke-opacity="0.41" stroke-width="3"/>
<line x1="1059.5" y1="-6.55671e-08" x2="1059.5" y2="680" stroke="#E5E7EB" stroke-opacity="0.41" stroke-width="3"/>
<line x1="1099.5" y1="-6.55671e-08" x2="1099.5" y2="680" stroke="#E5E7EB" stroke-opacity="0.41" stroke-width="3"/>
<line x1="1139.5" y1="-6.55671e-08" x2="1139.5" y2="680" stroke="#E5E7EB" stroke-opacity="0.41" stroke-width="3"/>
<line x1="1179.5" y1="-6.55671e-08" x2="1179.5" y2="680" stroke="#E5E7EB" stroke-opacity="0.41" stroke-width="3"/>
<line x1="1219.5" y1="-6.55671e-08" x2="1219.5" y2="680" stroke="#E5E7EB" stroke-opacity="0.41" stroke-width="3"/>
<line x1="1259.5" y1="-6.55671e-08" x2="1259.5" y2="680" stroke="#E5E7EB" stroke-opacity="0.41" stroke-width="3"/>
<line x1="1299.5" y1="-6.55671e-08" x2="1299.5" y2="680" stroke="#E5E7EB" stroke-opacity="0.41" stroke-width="3"/>
<line x1="1519" y1="1.5" x2="-148" y2="1.50004" stroke="#E5E7EB" stroke-opacity="0.41" stroke-width="3"/>
<line x1="1519" y1="41.5" x2="-148" y2="41.5" stroke="#E5E7EB" stroke-opacity="0.41" stroke-width="3"/>
<line x1="1519" y1="81.5" x2="-148" y2="81.5" stroke="#E5E7EB" stroke-opacity="0.41" stroke-width="3"/>
<line x1="1519" y1="121.5" x2="-148" y2="121.5" stroke="#E5E7EB" stroke-opacity="0.41" stroke-width="3"/>
<line x1="1519" y1="161.5" x2="-148" y2="161.5" stroke="#E5E7EB" stroke-opacity="0.41" stroke-width="3"/>
<line x1="1519" y1="201.5" x2="-148" y2="201.5" stroke="#E5E7EB" stroke-opacity="0.41" stroke-width="3"/>
<line x1="1519" y1="241.5" x2="-148" y2="241.5" stroke="#E5E7EB" stroke-opacity="0.41" stroke-width="3"/>
<line x1="1519" y1="281.501" x2="-148" y2="281.501" stroke="#E5E7EB" stroke-opacity="0.41" stroke-width="3"/>
<line x1="1519" y1="321.501" x2="-148" y2="321.501" stroke="#E5E7EB" stroke-opacity="0.41" stroke-width="3"/>
<line x1="1519" y1="361.501" x2="-148" y2="361.501" stroke="#E5E7EB" stroke-opacity="0.41" stroke-width="3"/>
<line x1="1519" y1="401.501" x2="-148" y2="401.501" stroke="#E5E7EB" stroke-opacity="0.41" stroke-width="3"/>
<line x1="1519" y1="441.501" x2="-148" y2="441.501" stroke="#E5E7EB" stroke-opacity="0.41" stroke-width="3"/>
<line x1="1519" y1="481.501" x2="-148" y2="481.501" stroke="#E5E7EB" stroke-opacity="0.41" stroke-width="3"/>
<line x1="1519" y1="521.501" x2="-148" y2="521.501" stroke="#E5E7EB" stroke-opacity="0.41" stroke-width="3"/>
<line x1="1519" y1="561.501" x2="-148" y2="561.501" stroke="#E5E7EB" stroke-opacity="0.41" stroke-width="3"/>
<line x1="1519" y1="601.501" x2="-148" y2="601.501" stroke="#E5E7EB" stroke-opacity="0.41" stroke-width="3"/>
<line x1="1519" y1="641.501" x2="-148" y2="641.501" stroke="#E5E7EB" stroke-opacity="0.41" stroke-width="3"/>
<line x1="1519" y1="681.501" x2="-148" y2="681.501" stroke="#E5E7EB" stroke-opacity="0.41" stroke-width="3"/>
</svg>
