<svg viewBox="0 0 392 261" fill="none" xmlns="http://www.w3.org/2000/svg">
<g filter="url(#filter0_di_265_3038)">
<g clip-path="url(#clip0_265_3038)">
<path d="M34 46C34 32.7452 44.7452 22 58 22H334C347.255 22 358 32.7452 358 46V191C358 204.255 347.255 215 334 215H58C44.7452 215 34 204.255 34 191V46Z" fill="#0A0A0A" fill-opacity="0.6" shape-rendering="crispEdges"/>
<g opacity="0.29" filter="url(#filter1_f_265_3038)">
<circle cx="336.5" cy="170.5" r="36.5" fill="#D9D9D9" fill-opacity="0.6"/>
</g>
<g opacity="0.29" filter="url(#filter2_f_265_3038)">
<circle cx="47.5" cy="42.5" r="36.5" fill="#D9D9D9"/>
</g>
<rect x="66.5" y="54.5" width="259" height="39" rx="11.5" fill="#131313"/>
<rect x="66.5" y="54.5" width="259" height="39" rx="11.5" stroke="#252527"/>
<path d="M79.328 80V68.08H87.088V69.52H80.896V73.296H86.768V74.736H80.896V78.56H87.088V80H79.328ZM89.0951 74.864V73.456H96.2951V74.864H89.0951ZM89.0951 78.656V77.264H96.2951V78.656H89.0951ZM98.8395 80V71.376H100.296V73.136L100.088 72.864C100.301 72.32 100.642 71.904 101.112 71.616C101.581 71.328 102.109 71.184 102.696 71.184C103.368 71.184 103.97 71.3707 104.504 71.744C105.048 72.1173 105.421 72.608 105.624 73.216L105.208 73.232C105.432 72.56 105.81 72.0533 106.344 71.712C106.877 71.36 107.469 71.184 108.12 71.184C108.717 71.184 109.256 71.3227 109.736 71.6C110.226 71.8773 110.616 72.2613 110.904 72.752C111.192 73.2427 111.336 73.7973 111.336 74.416V80H109.832V74.896C109.832 74.416 109.746 74.0107 109.576 73.68C109.405 73.3493 109.17 73.0933 108.872 72.912C108.584 72.72 108.242 72.624 107.848 72.624C107.464 72.624 107.117 72.72 106.808 72.912C106.509 73.0933 106.269 73.3547 106.088 73.696C105.917 74.0267 105.832 74.4267 105.832 74.896V80H104.328V74.896C104.328 74.416 104.242 74.0107 104.072 73.68C103.901 73.3493 103.666 73.0933 103.368 72.912C103.08 72.72 102.738 72.624 102.344 72.624C101.96 72.624 101.613 72.72 101.304 72.912C101.005 73.0933 100.765 73.3547 100.584 73.696C100.413 74.0267 100.328 74.4267 100.328 74.896V80H98.8395ZM117.449 80.192C116.606 80.192 115.854 79.9947 115.193 79.6C114.542 79.2053 114.03 78.6667 113.657 77.984C113.284 77.3013 113.097 76.5333 113.097 75.68C113.097 74.816 113.284 74.048 113.657 73.376C114.03 72.704 114.542 72.1707 115.193 71.776C115.854 71.3813 116.606 71.184 117.449 71.184C118.014 71.184 118.542 71.2853 119.033 71.488C119.524 71.6907 119.956 71.9627 120.329 72.304C120.702 72.6453 120.974 73.0453 121.145 73.504L119.817 74.144C119.614 73.696 119.305 73.3333 118.889 73.056C118.473 72.768 117.993 72.624 117.449 72.624C116.926 72.624 116.452 72.7573 116.025 73.024C115.609 73.2907 115.278 73.6533 115.033 74.112C114.788 74.5707 114.665 75.0987 114.665 75.696C114.665 76.272 114.788 76.7947 115.033 77.264C115.278 77.7227 115.609 78.0853 116.025 78.352C116.452 78.6187 116.926 78.752 117.449 78.752C117.993 78.752 118.473 78.6133 118.889 78.336C119.305 78.048 119.614 77.6693 119.817 77.2L121.145 77.872C120.974 78.32 120.702 78.72 120.329 79.072C119.956 79.4133 119.524 79.6853 119.033 79.888C118.542 80.0907 118.014 80.192 117.449 80.192ZM123.522 73.232L126.226 68.08H127.65L130.354 73.232H128.658L126.626 69.28H127.282L125.202 73.232H123.522ZM132.786 80V78.912L136.082 75.344C136.733 74.6507 137.25 74.08 137.634 73.632C138.029 73.184 138.317 72.784 138.498 72.432C138.679 72.08 138.77 71.7067 138.77 71.312C138.77 70.6613 138.578 70.16 138.194 69.808C137.81 69.456 137.303 69.28 136.674 69.28C136.034 69.28 135.49 69.4667 135.042 69.84C134.594 70.2027 134.285 70.72 134.114 71.392L132.69 71.024C132.829 70.384 133.085 69.8293 133.458 69.36C133.831 68.8907 134.295 68.528 134.85 68.272C135.405 68.016 136.013 67.888 136.674 67.888C137.399 67.888 138.034 68.032 138.578 68.32C139.133 68.5973 139.565 68.9867 139.874 69.488C140.194 69.9893 140.354 70.5707 140.354 71.232C140.354 71.6693 140.263 72.096 140.082 72.512C139.901 72.928 139.634 73.3707 139.282 73.84C138.93 74.2987 138.471 74.832 137.906 75.44L134.962 78.64H140.61V80H132.786ZM143.26 83.04V66.48H144.06V83.04H143.26Z" fill="#E5E7EB"/>
<rect x="66.5" y="110.5" width="259" height="72" rx="11.5" fill="#131313"/>
<rect x="66.5" y="110.5" width="259" height="72" rx="11.5" stroke="#252527"/>
<path d="M158.286 152.574C157.923 152.574 157.742 152.456 157.742 152.22C157.742 152.147 157.787 151.93 157.878 151.567C157.968 151.205 158.014 150.887 158.014 150.615C158.014 150.053 157.823 149.709 157.442 149.582C157.062 149.455 156.182 149.391 154.804 149.391H153.39C153.371 149.427 153.054 150.679 152.438 153.145C151.821 155.611 151.513 156.88 151.513 156.953C151.513 157.025 151.612 157.062 151.812 157.062C152.011 157.062 152.737 157.08 153.988 157.116C155.693 157.116 156.817 157.098 157.361 157.062C157.905 157.025 158.449 156.907 158.993 156.708C159.881 156.418 160.616 155.91 161.196 155.185C161.776 154.459 162.42 153.272 163.127 151.622C163.309 151.223 163.427 151.005 163.481 150.969C163.608 150.933 163.744 150.914 163.889 150.914C164.252 150.914 164.433 151.032 164.433 151.268C162.529 155.874 161.532 158.222 161.441 158.313C161.387 158.349 158.793 158.367 153.662 158.367H148.521C146.671 158.367 145.746 158.267 145.746 158.068C145.746 158.032 145.773 157.905 145.828 157.687C145.9 157.397 145.973 157.234 146.045 157.198C146.118 157.161 146.326 157.134 146.671 157.116C147.161 157.116 147.705 157.089 148.303 157.034C148.557 156.98 148.729 156.871 148.82 156.708C148.856 156.617 149.5 154.07 150.751 149.065C152.002 144.06 152.637 141.521 152.655 141.449C152.655 141.322 152.619 141.258 152.546 141.258C152.401 141.204 151.921 141.159 151.105 141.122H150.261C150.153 141.014 150.098 140.941 150.098 140.905C150.098 140.869 150.116 140.714 150.153 140.442C150.225 140.134 150.316 139.944 150.425 139.871H165.494C165.621 139.944 165.684 140.043 165.684 140.17C165.684 140.261 165.566 141.277 165.331 143.217C165.095 145.157 164.968 146.154 164.95 146.209C164.914 146.336 164.732 146.399 164.406 146.399H164.079C163.953 146.309 163.889 146.191 163.889 146.046L163.971 145.42C164.025 144.985 164.052 144.513 164.052 144.006C164.052 143.462 163.989 143.008 163.862 142.646C163.735 142.283 163.563 142.002 163.345 141.802C163.127 141.603 162.81 141.458 162.393 141.367C161.976 141.277 161.55 141.213 161.115 141.177C160.679 141.141 160.099 141.122 159.374 141.122H158.095C156.499 141.141 155.656 141.168 155.566 141.204C155.493 141.24 155.439 141.322 155.402 141.449C155.384 141.503 155.103 142.618 154.559 144.794C154.015 146.97 153.734 148.077 153.716 148.113C154.133 148.131 154.568 148.14 155.022 148.14H155.729C156.926 148.14 157.751 148.004 158.204 147.732C158.657 147.46 159.065 146.726 159.428 145.529C159.501 145.239 159.555 145.075 159.591 145.039C159.628 145.003 159.782 144.976 160.054 144.958C160.144 144.958 160.217 144.958 160.271 144.958C160.326 144.958 160.371 144.967 160.407 144.985C160.444 145.003 160.462 145.012 160.462 145.012C160.462 145.012 160.48 145.048 160.516 145.121C160.552 145.193 160.58 145.23 160.598 145.23L159.7 148.82C159.102 151.232 158.775 152.456 158.721 152.492C158.667 152.546 158.521 152.574 158.286 152.574Z" fill="white" stroke="#FFFDFD"/>
<path d="M174.764 148.929C174.764 148.693 174.891 148.512 175.145 148.385H192.472C192.744 148.53 192.88 148.712 192.88 148.929C192.88 149.129 192.753 149.301 192.499 149.446L183.849 149.473H175.199C174.909 149.383 174.764 149.201 174.764 148.929ZM174.764 154.206C174.764 153.934 174.909 153.753 175.199 153.662H192.499C192.753 153.843 192.88 154.025 192.88 154.206C192.88 154.442 192.744 154.623 192.472 154.75H175.145C174.891 154.623 174.764 154.442 174.764 154.206Z" fill="white" stroke="#FFFDFD"/>
<path d="M202.531 150.56C202.549 150.452 202.576 150.307 202.612 150.125C202.649 149.944 202.757 149.599 202.939 149.092C203.12 148.584 203.301 148.158 203.483 147.813C203.664 147.469 203.954 147.133 204.353 146.807C204.752 146.48 205.151 146.326 205.55 146.344C205.949 146.363 206.339 146.426 206.72 146.535C207.101 146.644 207.373 146.807 207.536 147.024C207.699 147.242 207.844 147.441 207.971 147.623C208.098 147.804 208.17 147.976 208.189 148.14L208.243 148.33C208.243 148.366 208.252 148.384 208.27 148.384L208.569 148.085C209.657 146.925 210.936 146.344 212.405 146.344C212.713 146.344 212.994 146.363 213.248 146.399C213.502 146.435 213.738 146.499 213.955 146.589C214.173 146.68 214.345 146.771 214.472 146.861C214.599 146.952 214.735 147.061 214.88 147.188C215.025 147.315 215.116 147.432 215.152 147.541C215.188 147.65 215.261 147.768 215.37 147.895C215.478 148.022 215.515 148.131 215.478 148.221C215.442 148.312 215.469 148.393 215.56 148.466C215.651 148.539 215.669 148.602 215.614 148.656L215.832 148.384C216.974 147.024 218.325 146.344 219.885 146.344C220.864 146.344 221.653 146.589 222.251 147.079C222.85 147.568 223.158 148.285 223.176 149.228C223.176 150.152 222.832 151.585 222.143 153.525C221.453 155.465 221.109 156.626 221.109 157.007C221.127 157.261 221.172 157.433 221.245 157.524C221.317 157.614 221.453 157.66 221.653 157.66C222.161 157.66 222.632 157.388 223.067 156.844C223.503 156.3 223.856 155.556 224.128 154.613C224.183 154.414 224.237 154.296 224.291 154.26C224.346 154.223 224.491 154.205 224.727 154.205C225.089 154.205 225.271 154.278 225.271 154.423C225.271 154.441 225.234 154.577 225.162 154.831C225.017 155.357 224.817 155.873 224.563 156.381C224.31 156.889 223.892 157.397 223.312 157.904C222.732 158.412 222.106 158.657 221.435 158.639C220.583 158.639 219.967 158.394 219.586 157.904C219.205 157.415 219.014 156.907 219.014 156.381C219.014 156.037 219.341 154.949 219.994 153.117C220.647 151.286 220.982 149.908 221 148.983C221 147.913 220.601 147.378 219.803 147.378H219.667C218.108 147.378 216.793 148.294 215.723 150.125L215.533 150.452L214.635 154.096C214.037 156.472 213.692 157.75 213.602 157.932C213.366 158.421 212.976 158.666 212.432 158.666C212.196 158.666 212.006 158.603 211.861 158.476C211.716 158.349 211.616 158.24 211.561 158.149C211.507 158.059 211.48 157.968 211.48 157.877C211.48 157.678 211.788 156.381 212.405 153.988L213.384 150.016C213.438 149.744 213.466 149.4 213.466 148.983C213.466 147.913 213.067 147.378 212.269 147.378H212.133C210.573 147.378 209.258 148.294 208.189 150.125L207.998 150.452L207.101 154.096C206.502 156.472 206.158 157.75 206.067 157.932C205.831 158.421 205.441 158.666 204.897 158.666C204.661 158.666 204.471 158.612 204.326 158.503C204.181 158.394 204.081 158.285 204.027 158.176C203.972 158.068 203.954 157.977 203.972 157.904C203.972 157.669 204.317 156.182 205.006 153.444C205.713 150.651 206.067 149.191 206.067 149.064C206.121 148.792 206.148 148.548 206.148 148.33C206.148 147.677 205.922 147.351 205.468 147.351C205.07 147.351 204.734 147.605 204.462 148.112C204.19 148.62 203.981 149.173 203.836 149.772C203.691 150.37 203.583 150.696 203.51 150.751C203.474 150.787 203.329 150.805 203.075 150.805H202.694C202.585 150.696 202.531 150.615 202.531 150.56Z" fill="white" stroke="#FFFDFD"/>
<path d="M226.767 154.043C226.767 152.066 227.546 150.289 229.106 148.711C230.665 147.134 232.352 146.345 234.165 146.345C235.181 146.345 235.979 146.563 236.559 146.998C237.139 147.433 237.438 148.004 237.457 148.711C237.457 149.237 237.284 149.682 236.94 150.044C236.595 150.407 236.16 150.597 235.634 150.615C235.29 150.615 235.018 150.525 234.818 150.343C234.619 150.162 234.519 149.89 234.519 149.527C234.519 149.165 234.619 148.856 234.818 148.603C235.018 148.349 235.217 148.158 235.416 148.031C235.616 147.904 235.743 147.85 235.797 147.868H235.824C235.824 147.832 235.77 147.778 235.661 147.705C235.552 147.632 235.362 147.56 235.09 147.487C234.818 147.415 234.51 147.379 234.165 147.379C233.621 147.379 233.104 147.506 232.615 147.759C232.234 147.923 231.844 148.204 231.445 148.603C230.647 149.4 230.067 150.525 229.704 151.975C229.342 153.426 229.151 154.478 229.133 155.131C229.133 155.965 229.369 156.59 229.84 157.007C230.239 157.443 230.765 157.66 231.418 157.66H231.527C233.558 157.66 235.235 156.89 236.559 155.348C236.722 155.167 236.831 155.076 236.885 155.076C236.958 155.076 237.076 155.158 237.239 155.321C237.402 155.484 237.493 155.611 237.511 155.702C237.529 155.792 237.447 155.928 237.266 156.11C237.085 156.291 236.822 156.545 236.477 156.871C236.133 157.198 235.725 157.47 235.253 157.687C234.782 157.905 234.202 158.132 233.512 158.367C232.823 158.603 232.098 158.703 231.336 158.667C229.976 158.667 228.879 158.231 228.045 157.361C227.211 156.491 226.785 155.384 226.767 154.043Z" fill="white" stroke="#FFFDFD"/>
<path d="M239.716 138.883C239.37 138.883 239.094 138.768 238.889 138.537C238.684 138.306 238.582 138.024 238.582 137.691C238.582 136.78 238.921 135.992 239.601 135.325C240.28 134.659 241.126 134.325 242.139 134.325C243.306 134.325 244.28 134.684 245.062 135.402C245.844 136.12 246.242 137.05 246.255 138.191C246.255 138.742 246.127 139.268 245.87 139.768C245.614 140.268 245.306 140.703 244.947 141.075C244.588 141.447 244.075 141.921 243.409 142.498C242.947 142.896 242.306 143.485 241.485 144.267L240.351 145.344L241.812 145.364C243.825 145.364 244.896 145.332 245.024 145.267C245.114 145.242 245.268 144.671 245.485 143.556V143.498H246.255V143.556C246.242 143.594 246.159 144.178 246.005 145.306C245.851 146.434 245.755 147.024 245.716 147.075V147.133H238.582V146.767V146.537C238.582 146.447 238.62 146.351 238.697 146.248C238.774 146.146 238.966 145.921 239.274 145.575C239.646 145.165 239.966 144.806 240.235 144.498C240.351 144.37 240.569 144.133 240.889 143.787C241.21 143.441 241.428 143.203 241.543 143.075C241.659 142.947 241.844 142.735 242.101 142.441C242.357 142.146 242.537 141.928 242.639 141.787C242.742 141.646 242.889 141.453 243.082 141.21C243.274 140.966 243.409 140.761 243.485 140.594C243.562 140.428 243.659 140.242 243.774 140.037C243.889 139.832 243.973 139.627 244.024 139.421C244.075 139.216 244.12 139.024 244.159 138.845C244.197 138.665 244.216 138.453 244.216 138.21C244.216 137.402 243.998 136.704 243.562 136.114C243.126 135.524 242.505 135.229 241.697 135.229C241.274 135.229 240.902 135.338 240.582 135.556C240.261 135.774 240.037 135.986 239.908 136.191C239.78 136.396 239.716 136.518 239.716 136.556C239.716 136.569 239.748 136.575 239.812 136.575C240.043 136.575 240.28 136.665 240.524 136.845C240.767 137.024 240.889 137.319 240.889 137.729C240.889 138.05 240.787 138.319 240.582 138.537C240.376 138.755 240.088 138.87 239.716 138.883Z" fill="white" stroke="#FFFDFD"/>
</g>
<path d="M58 23H334C346.703 23 357 33.2975 357 46V191C357 203.703 346.703 214 334 214H58C45.2975 214 35 203.703 35 191V46C35 33.2975 45.2975 23 58 23Z" stroke="url(#paint0_linear_265_3038)" stroke-width="2" shape-rendering="crispEdges"/>
</g>
<defs>
<filter id="filter0_di_265_3038" x="0" y="-7" width="392" height="268" filterUnits="userSpaceOnUse" color-interpolation-filters="sRGB">
<feFlood flood-opacity="0" result="BackgroundImageFix"/>
<feColorMatrix in="SourceAlpha" type="matrix" values="0 0 0 0 0 0 0 0 0 0 0 0 0 0 0 0 0 0 127 0" result="hardAlpha"/>
<feOffset dy="12"/>
<feGaussianBlur stdDeviation="17"/>
<feComposite in2="hardAlpha" operator="out"/>
<feColorMatrix type="matrix" values="0 0 0 0 0 0 0 0 0 0 0 0 0 0 0 0 0 0 0.65 0"/>
<feBlend mode="normal" in2="BackgroundImageFix" result="effect1_dropShadow_265_3038"/>
<feBlend mode="normal" in="SourceGraphic" in2="effect1_dropShadow_265_3038" result="shape"/>
<feColorMatrix in="SourceAlpha" type="matrix" values="0 0 0 0 0 0 0 0 0 0 0 0 0 0 0 0 0 0 127 0" result="hardAlpha"/>
<feOffset dy="-29"/>
<feGaussianBlur stdDeviation="16.75"/>
<feComposite in2="hardAlpha" operator="arithmetic" k2="-1" k3="1"/>
<feColorMatrix type="matrix" values="0 0 0 0 1 0 0 0 0 1 0 0 0 0 1 0 0 0 0.03 0"/>
<feBlend mode="normal" in2="shape" result="effect2_innerShadow_265_3038"/>
</filter>
<filter id="filter1_f_265_3038" x="244" y="78" width="185" height="185" filterUnits="userSpaceOnUse" color-interpolation-filters="sRGB">
<feFlood flood-opacity="0" result="BackgroundImageFix"/>
<feBlend mode="normal" in="SourceGraphic" in2="BackgroundImageFix" result="shape"/>
<feGaussianBlur stdDeviation="28" result="effect1_foregroundBlur_265_3038"/>
</filter>
<filter id="filter2_f_265_3038" x="-45" y="-50" width="185" height="185" filterUnits="userSpaceOnUse" color-interpolation-filters="sRGB">
<feFlood flood-opacity="0" result="BackgroundImageFix"/>
<feBlend mode="normal" in="SourceGraphic" in2="BackgroundImageFix" result="shape"/>
<feGaussianBlur stdDeviation="28" result="effect1_foregroundBlur_265_3038"/>
</filter>
<linearGradient id="paint0_linear_265_3038" x1="46.1328" y1="22" x2="368.203" y2="164.527" gradientUnits="userSpaceOnUse">
<stop stop-color="#7D7D89"/>
<stop offset="0.0858012" stop-color="#202023"/>
<stop offset="0.802046" stop-color="#111112"/>
<stop offset="1" stop-color="#7D7D89" stop-opacity="0.5"/>
</linearGradient>
<clipPath id="clip0_265_3038">
<path d="M34 46C34 32.7452 44.7452 22 58 22H334C347.255 22 358 32.7452 358 46V191C358 204.255 347.255 215 334 215H58C44.7452 215 34 204.255 34 191V46Z" fill="white"/>
</clipPath>
</defs>
</svg>
